<svg width="18" height="17" viewBox="0 0 18 17" fill="none" xmlns="http://www.w3.org/2000/svg">
<path fill-rule="evenodd" clip-rule="evenodd" d="M3.40639 2.83789H15.4384C15.8292 2.83789 16.1461 3.15477 16.1461 3.54565V13.4543C16.1461 13.8452 15.8292 14.1621 15.4384 14.1621H3.40639C3.0155 14.1621 2.69863 13.8452 2.69863 13.4543V3.54565C2.69863 3.15477 3.0155 2.83789 3.40639 2.83789Z" stroke="#344054" stroke-width="2" stroke-linecap="round" stroke-linejoin="round"/>
<path d="M6.0605 6.37671C6.35367 6.37671 6.59132 6.13905 6.59132 5.84589C6.59132 5.55272 6.35367 5.31506 6.0605 5.31506C5.76734 5.31506 5.52968 5.55272 5.52968 5.84589C5.52968 6.13905 5.76734 6.37671 6.0605 6.37671Z" stroke="#344054" stroke-width="2" stroke-linecap="round" stroke-linejoin="round"/>
<path d="M6.23744 8.5L8.00685 9.91552L10.1301 7.43835L16.1461 12.0388V13.4543C16.1461 13.8452 15.8292 14.1621 15.4384 14.1621H3.40639C3.0155 14.1621 2.69863 13.8452 2.69863 13.4543V12.0388L6.23744 8.5Z" fill="white" stroke="#344054" stroke-width="2" stroke-linejoin="round"/>
</svg>
